<svg width="283" height="281" viewBox="0 0 283 281" fill="none" xmlns="http://www.w3.org/2000/svg">
<rect width="282.841" height="158.55" transform="translate(0 50)" fill="black" fill-opacity="0.01"/>
<path d="M140 123.129L198.685 222.575L198.585 222.576L198.686 222.674L141.503 280.957L83.2205 223.774L83.3192 223.673L83.2196 223.674L140 123.129Z" fill="black"/>
<path d="M47.4234 196.887C48.1272 192.171 46.5643 189.527 42.7347 188.956C40.8674 188.677 39.1125 189.596 37.4701 191.713C36.7129 192.668 35.9708 193.738 35.2438 194.923C34.5215 196.078 33.7494 197.24 32.9275 198.412C32.1055 199.583 31.2527 200.637 30.3689 201.573C29.4898 202.477 28.4468 203.179 27.2398 203.678C26.0376 204.146 24.7402 204.275 23.3477 204.068C21.0689 203.728 19.2753 202.522 17.9668 200.45C16.6313 198.341 16.2045 195.673 16.6863 192.445C17.1681 189.217 18.6571 185.961 21.1531 182.677C22.9571 182.947 25.187 183.506 27.8427 184.355C27.8337 185.066 27.7442 185.991 27.5742 187.13L21.8546 187.732C21.608 188.084 21.3048 188.815 20.9448 189.926C20.5896 191.005 20.3482 191.972 20.2207 192.827C19.9467 194.663 20.1298 196.146 20.7698 197.277C21.3783 198.403 22.3788 199.07 23.7714 199.278C25.1323 199.481 26.454 199.08 27.7365 198.074C28.9921 197.032 30.1407 195.731 31.1823 194.172C32.1969 192.576 33.2409 191.001 34.3141 189.446C35.3921 187.86 36.6831 186.581 38.1871 185.608C39.6642 184.599 41.2732 184.224 43.0139 184.484C46.1788 184.956 48.4734 186.383 49.8977 188.763C51.2903 191.139 51.7315 194.036 51.2213 197.454C50.9426 199.321 50.3555 201.304 49.4598 203.403C48.5373 205.465 47.5108 207.14 46.3804 208.427C44.2694 208.048 41.852 207.444 39.1282 206.617C39.1372 205.907 39.2267 204.982 39.3967 203.842L45.2424 203.696C45.6312 203.042 46.0561 202.037 46.5171 200.683C46.9512 199.292 47.2533 198.026 47.4234 196.887Z" fill="black"/>
<path d="M51.9858 96.5639L74.8746 111.385L77.3321 108.165C78.0927 108.639 78.7638 109.377 79.3454 110.38L73.509 119.752L72.0068 118.986C72.3504 117.465 72.7942 116.027 73.3381 114.669C71.5387 113.624 67.8397 111.452 62.2411 108.153C56.6595 104.828 52.3357 102.267 49.2699 100.471C48.3759 101.422 47.2887 102.441 46.0082 103.529L44.6583 102.518L51.0023 92.3322C52.1591 92.4118 53.1177 92.6884 53.8783 93.1621C53.1242 94.6151 52.4933 95.749 51.9858 96.5639Z" fill="black"/>
<path d="M77.351 73.9673C80.0516 70.9304 82.5526 69.1291 84.8541 68.5635C87.1529 67.9528 89.5578 68.7638 92.0686 70.9966C94.5795 73.2293 95.9276 75.7343 96.1131 78.5113C96.2746 81.2672 94.9094 84.2711 92.0175 87.5233L89.3381 90.5363L97.0261 97.5655L99.7651 94.991C100.435 95.5864 100.971 96.4276 101.375 97.5145L94.1982 105.585L92.883 104.608C93.3935 103.264 94.0209 101.98 94.7652 100.758C85.3117 92.6083 78.2706 86.5612 73.6421 82.6166C72.9484 83.1559 71.7258 83.9529 69.9744 85.0075L68.7708 83.6161L77.351 73.9673ZM89.367 85.8087C91.1718 83.7309 92.0505 81.7074 92.0031 79.7383C91.9317 77.7478 91.0591 76.0083 89.3852 74.5198C87.7113 73.0313 86.0837 72.5261 84.5024 73.0041C82.8972 73.4608 81.0633 74.849 79.0007 77.1685C78.6179 77.599 77.9813 78.3389 77.0908 79.3884C77.1148 79.4097 80.4426 82.4332 87.0744 88.459L89.367 85.8087Z" fill="black"/>
<path d="M210.822 81.9551C211.413 82.0956 212.855 82.7454 215.149 83.9045C217.459 85.0364 219.498 86.1506 221.266 87.247C223.06 88.3603 224.397 89.3022 225.274 90.0726C225.234 90.1982 225.163 90.3426 225.062 90.5058C224.978 90.6418 224.685 90.9311 224.185 91.3737C223.712 91.8332 223.384 92.1193 223.201 92.2318C222.848 92.3144 222.135 92.0981 221.062 91.5827L214.86 118.972L218.533 121.702C218.06 122.464 217.323 123.136 216.321 123.719L206.94 117.9L207.703 116.396C208.531 116.458 209.619 116.738 210.967 117.235L212.505 110.112L201.125 103.052L195.893 107.207L198.995 109.582C198.522 110.344 197.785 111.016 196.783 111.6L187.401 105.78L188.165 104.276C189.461 104.554 190.775 104.955 192.107 105.479L214.366 87.2601C212.115 85.4869 210.618 84.1064 209.875 83.1184L210.822 81.9551ZM214.925 99.0167L217.722 89.6809C217.576 89.5525 217.353 89.3955 217.054 89.21L209.69 96.1647L203.478 100.897L213.39 107.046L214.925 99.0167Z" fill="black"/>
<path d="M222.967 146.75C217.809 138.882 220.167 131.711 230.042 125.237C234.725 122.167 238.908 120.784 242.589 121.087C246.287 121.417 249.514 123.683 252.268 127.885C254.479 131.257 255.507 134.868 255.353 138.719C253.854 139.702 251.831 140.76 249.284 141.894C248.958 141.572 248.41 140.822 247.638 139.645L251.826 135.177C250.928 133.049 250.102 131.41 249.347 130.259C247.961 128.145 246.448 126.478 244.806 125.258L244.025 124.68C243.652 124.694 243.119 124.757 242.426 124.867C241.76 124.959 240.466 125.349 238.543 126.035C236.638 126.748 234.816 127.675 233.077 128.815C229.303 131.289 226.709 133.87 225.295 136.557C223.899 139.271 224.095 141.993 225.885 144.722C227.165 146.676 228.331 148.016 229.382 148.743C229.691 148.923 230.146 149.18 230.747 149.513L236.117 147.198L237.523 149.605C235.029 151.813 232.926 153.479 231.213 154.602C230.417 154.321 229.15 153.41 227.414 151.87C225.695 150.357 224.212 148.65 222.967 146.75Z" fill="black"/>
<path d="M259.656 177.125L248.691 180.82L251.261 187.955L254.643 187.145C254.947 187.988 255.016 188.983 254.851 190.131L246.271 193.222L245.566 191.69C246.698 190.772 247.673 190.08 248.492 189.615L245.71 181.893C243.069 182.777 239.179 184.11 234.039 185.893L237.765 196.235L242.4 195.79L243.163 198.474C241.599 199.514 240.154 200.272 238.83 200.749C237.535 201.215 236.681 201.489 236.268 201.57L228.362 179.622L229.894 178.918C230.853 180.069 231.66 181.224 232.315 182.382C243.992 177.972 252.668 174.676 258.345 172.495C258.167 171.811 258.051 170.356 257.997 168.131L259.795 167.738L267.636 189.505C267.266 189.706 266.675 189.953 265.862 190.246C264.206 190.842 262.339 191.277 260.26 191.55C259.871 190.941 259.481 190.095 259.091 189.012L262.991 186.382L259.656 177.125Z" fill="black"/>
<path d="M130.569 88.2298C135.161 86.9436 136.934 84.4363 135.889 80.7078C135.38 78.8898 133.824 77.6642 131.221 77.0309C130.04 76.7303 128.76 76.4908 127.38 76.3122C126.032 76.125 124.655 75.8959 123.25 75.6249C121.845 75.3539 120.534 75.0065 119.319 74.5826C118.134 74.1501 117.067 73.4853 116.118 72.5881C115.2 71.6822 114.551 70.5514 114.171 69.1956C113.549 66.977 113.917 64.847 115.272 62.8057C116.65 60.7249 118.91 59.2443 122.053 58.3638C125.196 57.4834 128.776 57.5106 132.794 58.4457C133.286 60.2021 133.687 62.4657 133.998 65.2365C133.346 65.5189 132.465 65.8154 131.356 66.1262L128.467 61.153C128.046 61.0717 127.255 61.094 126.093 61.2199C124.963 61.3371 123.982 61.5122 123.15 61.7453C121.363 62.246 120.084 63.0196 119.314 64.0661C118.535 65.0819 118.336 66.2677 118.715 67.6235C119.087 68.9485 119.993 69.9905 121.435 70.7496C122.9 71.4693 124.557 71.9855 126.405 72.2984C128.277 72.5718 130.141 72.8803 131.998 73.224C133.887 73.559 135.582 74.2139 137.085 75.1887C138.61 76.1241 139.61 77.4391 140.084 79.1339C140.948 82.2153 140.584 84.8925 138.995 87.1656C137.396 89.4079 134.933 90.9952 131.605 91.9274C129.787 92.4367 127.737 92.7118 125.456 92.7528C123.196 92.7543 121.248 92.5025 119.611 91.9973C119.095 89.9155 118.657 87.4627 118.298 84.6389C118.95 84.3565 119.83 84.06 120.94 83.7492L123.464 89.0238C124.22 89.1112 125.31 89.0883 126.735 88.955C128.182 88.7822 129.46 88.5405 130.569 88.2298Z" fill="black"/>
<path d="M176.347 62.5176C180.36 63.159 183.224 64.2974 184.939 65.9326C186.691 67.5413 187.302 70.0046 186.772 73.3225C186.242 76.6404 184.856 79.1248 182.616 80.7759C180.38 82.3953 177.113 82.8616 172.816 82.1747L168.834 81.5384L167.048 91.8011L170.692 92.7238C170.551 93.6086 170.131 94.5136 169.432 95.4389L158.767 93.7343L158.883 92.1C160.291 91.8066 161.71 91.6446 163.141 91.614C164.921 79.2601 166.228 70.0712 167.061 64.0472C166.233 63.7528 164.903 63.1514 163.072 62.2429L163.597 60.4797L176.347 62.5176ZM172.834 79.0181C175.557 79.4208 177.735 79.0723 179.369 77.9724C181.008 76.8409 182.005 75.1692 182.358 72.9573C182.712 70.7454 182.262 69.1017 181.008 68.0263C179.759 66.9193 177.602 66.1209 174.537 65.631C173.968 65.54 173.002 65.4018 171.638 65.2162C171.633 65.2478 170.876 69.6799 169.367 78.5124L172.834 79.0181Z" fill="black"/>
<path d="M37.4141 148.781L41.7419 133.743C37.9694 132.736 34.2343 131.773 30.5366 130.855C29.9971 131.932 29.2382 133.197 28.2596 134.648L26.6831 134.05L29.9666 122.508C31.1004 122.265 32.0982 122.266 32.96 122.511C32.6453 124.085 32.3566 125.334 32.0939 126.257L58.173 134.225L59.6456 130.452C60.5074 130.697 61.3563 131.222 62.1924 132.025L59.1716 142.644L57.5163 142.323C57.4354 140.736 57.4688 139.215 57.6166 137.76L44.6768 134.478L40.3426 149.713C45.8653 151.351 49.9963 152.56 52.7356 153.339L54.2082 149.566C55.07 149.811 55.9189 150.335 56.755 151.139L53.7342 161.757L52.0789 161.436C51.998 159.849 52.0314 158.329 52.1792 156.873C40.1494 153.784 31.1228 151.482 25.0991 149.968C24.5597 151.046 23.8007 152.31 22.8222 153.762L21.2457 153.164L24.5292 141.622C25.6629 141.379 26.6607 141.38 27.5225 141.625C27.2079 143.199 26.9192 144.448 26.6565 145.371C28.9694 146.129 32.5553 147.265 37.4141 148.781Z" fill="black"/>
</svg>
