<svg width="283" height="281" viewBox="0 0 283 281" fill="none" xmlns="http://www.w3.org/2000/svg">
<rect width="282.841" height="158.55" transform="translate(0 50)" fill="black" fill-opacity="0.01"/>
<path d="M140 123.129L198.685 222.575L198.585 222.576L198.686 222.674L141.503 280.957L83.2205 223.774L83.3192 223.673L83.2196 223.674L140 123.129Z" fill="black"/>
<g filter="url(#filter1_d_6_115)">
<path d="M47.3089 193.949C48.0127 189.233 46.4498 186.589 42.6202 186.018C40.7529 185.739 38.998 186.658 37.3556 188.775C36.5984 189.729 35.8563 190.8 35.1293 191.985C34.407 193.139 33.6349 194.302 32.813 195.474C31.991 196.645 31.1382 197.699 30.2544 198.634C29.3753 199.539 28.3322 200.24 27.1253 200.74C25.9231 201.207 24.6257 201.337 23.2332 201.129C20.9544 200.789 19.1608 199.583 17.8523 197.511C16.5168 195.403 16.09 192.735 16.5718 189.507C17.0536 186.279 18.5426 183.023 21.0386 179.739C22.8426 180.008 25.0725 180.568 27.7282 181.417C27.7192 182.127 27.6297 183.052 27.4597 184.192L21.7401 184.794C21.4935 185.146 21.1903 185.877 20.8303 186.988C20.4751 188.067 20.2337 189.034 20.1062 189.889C19.8322 191.724 20.0153 193.208 20.6553 194.338C21.2638 195.465 22.2643 196.132 23.6569 196.339C25.0178 196.543 26.3395 196.141 27.622 195.136C28.8776 194.094 30.0262 192.793 31.0678 191.233C32.0824 189.638 33.1264 188.063 34.1996 186.508C35.2776 184.922 36.5686 183.642 38.0726 182.67C39.5497 181.661 41.1587 181.286 42.8994 181.546C46.0643 182.018 48.3589 183.445 49.7832 185.825C51.1758 188.2 51.617 191.097 51.1068 194.515C50.8281 196.383 50.241 198.366 49.3453 200.465C48.4228 202.527 47.3963 204.202 46.2659 205.489C44.1549 205.109 41.7375 204.506 39.0137 203.679C39.0227 202.968 39.1122 202.043 39.2822 200.904L45.1279 200.757C45.5167 200.104 45.9416 199.099 46.4026 197.744C46.8367 196.353 47.1388 195.088 47.3089 193.949Z" fill="black"/>
<path d="M51.8713 93.6256L74.7601 108.447L77.2176 105.227C77.9782 105.701 78.6493 106.439 79.2309 107.442L73.3945 116.813L71.8923 116.047C72.2359 114.527 72.6797 113.088 73.2236 111.731C71.4242 110.685 67.7252 108.514 62.1266 105.215C56.5449 101.89 52.2212 99.3287 49.1554 97.5324C48.2614 98.4836 47.1742 99.5029 45.8937 100.59L44.5438 99.5799L50.8878 89.394C52.0446 89.4735 53.0032 89.7502 53.7638 90.2239C53.0097 91.6768 52.3788 92.8107 51.8713 93.6256Z" fill="black"/>
<path d="M77.2365 71.0291C79.9371 67.9921 82.4381 66.1909 84.7396 65.6253C87.0384 65.0146 89.4433 65.8256 91.9541 68.0583C94.465 70.2911 95.8131 72.796 95.9986 75.5731C96.1601 78.3289 94.7949 81.3329 91.903 84.585L89.2236 87.5981L96.9116 94.6272L99.6506 92.0527C100.32 92.6481 100.857 93.4893 101.26 94.5763L94.0837 102.647L92.7685 101.67C93.279 100.325 93.9064 99.042 94.6507 97.8197C85.1972 89.6701 78.1561 83.6229 73.5276 79.6783C72.8339 80.2177 71.6113 81.0146 69.8599 82.0693L68.6563 80.6779L77.2365 71.0291ZM89.2525 82.8705C91.0573 80.7927 91.936 78.7692 91.8886 76.8C91.8172 74.8096 90.9446 73.0701 89.2707 71.5816C87.5968 70.0931 85.9692 69.5878 84.3879 70.0658C82.7827 70.5226 80.9488 71.9108 78.8862 74.2303C78.5034 74.6607 77.8668 75.4007 76.9763 76.4502C77.0002 76.4715 80.3281 79.495 86.9599 85.5208L89.2525 82.8705Z" fill="black"/>
<path d="M210.708 79.0169C211.299 79.1574 212.741 79.8072 215.034 80.9663C217.345 82.0982 219.384 83.2124 221.151 84.3088C222.946 85.4221 224.282 86.3639 225.16 87.1344C225.12 87.26 225.049 87.4044 224.948 87.5676C224.863 87.7035 224.571 87.9928 224.07 88.4355C223.597 88.895 223.269 89.181 223.086 89.2936C222.734 89.3762 222.021 89.1598 220.947 88.6445L214.746 116.034L218.418 118.764C217.946 119.525 217.209 120.198 216.207 120.781L206.825 114.962L207.588 113.458C208.416 113.52 209.504 113.799 210.853 114.297L212.391 107.173L201.01 100.114L195.779 104.268L198.88 106.644C198.408 107.406 197.671 108.078 196.669 108.661L187.287 102.842L188.05 101.338C189.347 101.615 190.661 102.016 191.992 102.541L214.252 84.3219C212 82.5487 210.503 81.1681 209.76 80.1802L210.708 79.0169ZM214.811 96.0784L217.608 86.7427C217.462 86.6143 217.239 86.4573 216.94 86.2717L209.576 93.2265L203.364 97.959L213.276 104.107L214.811 96.0784Z" fill="black"/>
<path d="M222.852 143.812C217.694 135.944 220.053 128.773 229.928 122.299C234.611 119.229 238.793 117.845 242.474 118.149C246.173 118.479 249.399 120.745 252.154 124.947C254.364 128.319 255.392 131.93 255.239 135.781C253.74 136.763 251.717 137.822 249.17 138.956C248.844 138.634 248.295 137.884 247.523 136.707L251.711 132.239C250.813 130.111 249.987 128.471 249.233 127.321C247.847 125.206 246.333 123.539 244.692 122.32L243.911 121.741C243.538 121.756 243.005 121.819 242.312 121.929C241.645 122.021 240.351 122.411 238.429 123.097C236.524 123.81 234.702 124.737 232.962 125.877C229.189 128.351 226.595 130.931 225.181 133.619C223.784 136.333 223.981 139.054 225.77 141.784C227.051 143.738 228.216 145.078 229.267 145.805C229.576 145.985 230.031 146.241 230.632 146.574L236.002 144.259L237.408 146.667C234.915 148.875 232.812 150.541 231.099 151.664C230.302 151.382 229.036 150.472 227.299 148.932C225.58 147.419 224.098 145.712 222.852 143.812Z" fill="black"/>
<path d="M259.541 174.187L248.576 177.881L251.147 185.016L254.528 184.206C254.832 185.049 254.901 186.045 254.737 187.193L246.156 190.283L245.452 188.752C246.584 187.834 247.559 187.142 248.378 186.677L245.596 178.955C242.955 179.838 239.065 181.172 233.925 182.955L237.65 193.297L242.286 192.851L243.049 195.536C241.484 196.575 240.04 197.334 238.715 197.811C237.421 198.277 236.567 198.551 236.154 198.632L228.248 176.684L229.779 175.979C230.738 177.131 231.545 178.285 232.201 179.444C243.877 175.033 252.554 171.738 258.23 169.557C258.052 168.873 257.936 167.418 257.883 165.192L259.68 164.8L267.521 186.567C267.152 186.768 266.56 187.015 265.747 187.308C264.092 187.904 262.224 188.339 260.146 188.611C259.757 188.003 259.367 187.157 258.976 186.073L262.876 183.444L259.541 174.187Z" fill="black"/>
</g>
<path d="M29.9668 122.508C31.1005 122.265 32.0982 122.267 32.96 122.512C32.6454 124.086 32.3564 125.334 32.0938 126.257L58.1729 134.226L59.6455 130.452C60.5073 130.698 61.3563 131.222 62.1924 132.026L59.1719 142.644L57.5166 142.323C57.4357 140.736 57.4684 139.215 57.6162 137.76L44.6768 134.478L40.3428 149.714C45.8652 151.352 49.9961 152.56 52.7354 153.339L54.208 149.566C55.0698 149.811 55.9188 150.336 56.7549 151.139L53.7344 161.757L52.0791 161.437C51.9982 159.85 52.0309 158.328 52.1787 156.873C40.1495 153.784 31.1231 151.482 25.0996 149.968C24.5602 151.045 23.8007 152.31 22.8223 153.762L21.2461 153.164L24.5293 141.622C25.663 141.379 26.6607 141.38 27.5225 141.625C27.2078 143.199 26.9189 144.448 26.6562 145.371C28.9692 146.129 32.5553 147.265 37.4141 148.781L41.7422 133.743C37.9697 132.737 34.2338 131.774 30.5361 130.855C29.9967 131.932 29.2383 133.197 28.2598 134.649L26.6836 134.05L29.9668 122.508ZM176.347 62.5178C180.36 63.1593 183.224 64.2976 184.939 65.9329C186.691 67.5415 187.303 70.0048 186.772 73.3225C186.242 76.6404 184.856 79.1246 182.615 80.7756C180.38 82.3951 177.113 82.8619 172.815 82.1751L168.834 81.5383L167.048 91.801L170.692 92.7239C170.551 93.6086 170.13 94.5135 169.432 95.4387L158.768 93.7346L158.883 92.0999C160.291 91.8064 161.71 91.6451 163.141 91.6145C164.921 79.2606 166.227 70.0711 167.061 64.0471C166.233 63.7527 164.903 63.1517 163.071 62.2434L163.597 60.4797L176.347 62.5178ZM122.054 58.3645C125.197 57.4841 128.777 57.5105 132.794 58.4456C133.286 60.2019 133.687 62.4658 133.998 65.2366C133.346 65.5189 132.466 65.8155 131.356 66.1262L128.468 61.1536C128.046 61.0723 127.255 61.0941 126.094 61.22C124.964 61.3372 123.982 61.5123 123.15 61.7454C121.363 62.246 120.084 63.0201 119.313 64.0667C118.535 65.0823 118.336 66.2678 118.716 67.6233C119.087 68.9483 119.993 69.9912 121.436 70.7503C122.9 71.4698 124.556 71.9862 126.405 72.2991C128.276 72.5725 130.141 72.8803 131.998 73.2239C133.886 73.5589 135.582 74.214 137.085 75.1887C138.61 76.124 139.609 77.4394 140.084 79.134C140.947 82.2154 140.584 84.8932 138.994 87.1663C137.396 89.4082 134.933 90.9958 131.605 91.928C129.788 92.4373 127.737 92.7122 125.456 92.7532C123.197 92.7547 121.248 92.5025 119.611 91.9973C119.095 89.9156 118.657 87.4627 118.298 84.6389C118.95 84.3566 119.83 84.06 120.939 83.7493L123.464 89.0237C124.219 89.1111 125.31 89.0886 126.734 88.9553C128.181 88.7826 129.46 88.5405 130.569 88.2297C135.16 86.9436 136.934 84.4366 135.89 80.7083C135.38 78.8903 133.824 77.6647 131.221 77.0315C130.04 76.7309 128.759 76.4913 127.38 76.3128C126.032 76.1256 124.655 75.8962 123.25 75.6253C121.845 75.3543 120.535 75.007 119.319 74.5833C118.135 74.1508 117.067 73.4854 116.118 72.5881C115.2 71.6823 114.551 70.5513 114.171 69.1956C113.549 66.9771 113.917 64.8472 115.272 62.8059C116.65 60.7252 118.911 59.2449 122.054 58.3645ZM169.367 78.5129L172.834 79.0178C175.556 79.4206 177.735 79.0727 179.369 77.9729C181.008 76.8414 182.005 75.1692 182.358 72.9573C182.712 70.7456 182.262 69.102 181.008 68.0266C179.759 66.9196 177.601 66.121 174.536 65.6311C173.967 65.5402 173.001 65.4016 171.638 65.2161C171.633 65.2477 170.876 69.6804 169.367 78.5129Z" fill="black"/>
<defs>
<filter id="filter1_d_6_115" x="12.3802" y="65.4286" width="259.141" height="148.061" filterUnits="userSpaceOnUse" color-interpolation-filters="sRGB">
<feFlood flood-opacity="0" result="BackgroundImageFix"/>
<feColorMatrix in="SourceAlpha" type="matrix" values="0 0 0 0 0 0 0 0 0 0 0 0 0 0 0 0 0 0 127 0" result="hardAlpha"/>
<feOffset dy="4"/>
<feGaussianBlur stdDeviation="2"/>
<feComposite in2="hardAlpha" operator="out"/>
<feColorMatrix type="matrix" values="0 0 0 0 0 0 0 0 0 0 0 0 0 0 0 0 0 0 0.25 0"/>
<feBlend mode="normal" in2="BackgroundImageFix" result="effect1_dropShadow_6_115"/>
<feBlend mode="normal" in="SourceGraphic" in2="effect1_dropShadow_6_115" result="shape"/>
</filter>
</defs>
</svg>
